<svg xmlns="http://www.w3.org/2000/svg" width="680" height="500" viewBox="0 0 680 500"><style>.label{font:14px sans-serif;fill:#e5e7eb}.value{font:12px sans-serif;fill:#9ca3af}.axis{stroke:#374151}.series{fill:none;stroke-width:2}</style><rect width="100%" height="100%" fill="#111827"/><text x="40" y="20" class="label">CPU utilization (%)</text><text x="640" y="20" text-anchor="end" class="value">latest: 129.32</text><line x1="40" y1="55" x2="640" y2="55" class="axis"/><polyline points="40,11.0 65,45.7 90,26.4 115,46.8 140,26.1 165,43.5 190,26.1 215,55.0 240,27.3 265,44.9 290,10.0 315,39.1 340,27.6 365,43.3 390,26.8 415,48.3 440,26.7 465,38.4 490,26.0 515,45.9" stroke="#ef4444" class="series"/><text x="40" y="115" class="label">Throughput (M leases/s)</text><text x="640" y="115" text-anchor="end" class="value">latest: 11.71</text><line x1="40" y1="150" x2="640" y2="150" class="axis"/><polyline points="40,144.9 65,121.4 90,130.7 115,115.1 140,136.4 165,121.9 190,136.8 215,105.0 240,136.9 265,114.0 290,150.0 315,122.7 340,136.6 365,117.2 390,134.6 415,110.8 440,136.4 465,108.4 490,139.8 515,125.0" stroke="#22c55e" class="series"/><text x="40" y="210" class="label">RSS (KiB)</text><text x="640" y="210" text-anchor="end" class="value">latest: 759824.00</text><line x1="40" y1="245" x2="640" y2="245" class="axis"/><polyline points="40,244.9 65,203.0 90,245.0 115,208.3 140,244.9 165,210.7 190,244.9 215,200.2 240,244.9 265,224.6 290,244.9 315,201.3 340,244.9 365,220.9 390,245.0 415,202.1 440,245.0 465,205.0 490,244.9 515,200.0" stroke="#3b82f6" class="series"/><text x="40" y="305" class="label">Memory recovery drift (KiB)</text><text x="640" y="305" text-anchor="end" class="value">latest: 0.00</text><line x1="40" y1="340" x2="640" y2="340" class="axis"/><polyline points="40,340.0 65,340.0 90,340.0 115,340.0 140,340.0 165,340.0 190,340.0 215,340.0 240,340.0 265,340.0 290,340.0 315,340.0 340,340.0 365,340.0 390,340.0 415,340.0 440,340.0 465,340.0 490,340.0 515,340.0" stroke="#a855f7" class="series"/><text x="40" y="400" class="label">Context switches</text><text x="640" y="400" text-anchor="end" class="value">latest: 8720.00</text><line x1="40" y1="435" x2="640" y2="435" class="axis"/><polyline points="40,397.5 65,419.9 90,426.4 115,430.7 140,426.1 165,435.0 190,426.0 215,425.5 240,427.0 265,425.7 290,390.0 315,420.7 340,428.2 365,434.5 390,426.6 415,433.4 440,426.5 465,417.4 490,426.9 515,426.8" stroke="#f59e0b" class="series"/></svg>
