<?xml version="1.0" encoding="UTF-8"?>
<svg xmlns="http://www.w3.org/2000/svg" width="1000" height="460" viewBox="0 0 1000 460"><style>.title{font:15px sans-serif;font-weight:bold;fill:#f9fafb}.legend{font:12px sans-serif;fill:#d1d5db}.tick{font:10px sans-serif;fill:#9ca3af}.axis-label{font:12px sans-serif;fill:#9ca3af}.footer{font:10px sans-serif;fill:#6b7280}</style><rect width="100%" height="100%" fill="#111827"/><text x="30" y="30" class="title">Latency Distribution (density, log scale) - wrk -t12 -c400 -d10s (after 10s warmup, warmup discarded)</text><rect x="60" y="60" width="880" height="320" fill="#1f2937" rx="6" stroke="#374151"/><line x1="60.0" y1="60" x2="60.0" y2="380" stroke="#374151" stroke-dasharray="2,3"/><text x="60.0" y="396" text-anchor="middle" class="tick">0ms</text><line x1="194.7" y1="60" x2="194.7" y2="380" stroke="#374151" stroke-dasharray="2,3"/><text x="194.7" y="396" text-anchor="middle" class="tick">1ms</text><line x1="273.6" y1="60" x2="273.6" y2="380" stroke="#374151" stroke-dasharray="2,3"/><text x="273.6" y="396" text-anchor="middle" class="tick">2ms</text><line x1="408.3" y1="60" x2="408.3" y2="380" stroke="#374151" stroke-dasharray="2,3"/><text x="408.3" y="396" text-anchor="middle" class="tick">5ms</text><line x1="526.1" y1="60" x2="526.1" y2="380" stroke="#374151" stroke-dasharray="2,3"/><text x="526.1" y="396" text-anchor="middle" class="tick">10ms</text><line x1="651.8" y1="60" x2="651.8" y2="380" stroke="#374151" stroke-dasharray="2,3"/><text x="651.8" y="396" text-anchor="middle" class="tick">20ms</text><line x1="824.3" y1="60" x2="824.3" y2="380" stroke="#374151" stroke-dasharray="2,3"/><text x="824.3" y="396" text-anchor="middle" class="tick">50ms</text><rect x="60" y="34" width="11" height="11" fill="#22c55e" rx="2"/><text x="76" y="43" class="legend">CWIST Classic</text><rect x="230" y="34" width="11" height="11" fill="#10b981" rx="2"/><text x="246" y="43" class="legend">CWIST</text><rect x="400" y="34" width="11" height="11" fill="#3b82f6" rx="2"/><text x="416" y="43" class="legend">Axum</text><rect x="570" y="34" width="11" height="11" fill="#06b6d4" rx="2"/><text x="586" y="43" class="legend">Gin</text><rect x="740" y="34" width="11" height="11" fill="#ef4444" rx="2"/><text x="756" y="43" class="legend">Spring Boot</text><polyline points="60.0,227.9 63.7,222.0 67.4,215.8 71.0,209.6 74.7,203.3 78.4,196.9 82.1,190.4 85.8,184.0 89.5,177.4 93.1,170.9 96.8,164.4 100.5,158.0 104.2,151.6 107.9,145.3 111.5,139.1 115.2,133.1 118.9,127.2 122.6,121.5 126.3,116.0 130.0,110.8 133.6,105.9 137.3,101.2 141.0,96.8 144.7,92.7 148.4,88.9 152.1,85.5 155.7,82.4 159.4,79.6 163.1,77.2 166.8,75.1 170.5,73.4 174.1,72.0 177.8,71.0 181.5,70.3 185.2,70.0 188.9,70.0 192.6,70.4 196.2,71.1 199.9,72.2 203.6,73.6 207.3,75.4 211.0,77.6 214.6,80.3 218.3,83.3 222.0,86.7 225.7,90.5 229.4,94.7 233.1,99.2 236.7,104.1 240.4,109.2 244.1,114.6 247.8,120.1 251.5,125.7 255.1,131.3 258.8,136.9 262.5,142.3 266.2,147.6 269.9,152.5 273.6,157.3 277.2,161.8 280.9,166.0 284.6,170.2 288.3,174.3 292.0,178.4 295.6,182.7 299.3,187.4 303.0,192.4 306.7,197.9 310.4,203.8 314.1,210.2 317.7,217.0 321.4,224.0 325.1,231.1 328.8,238.0 332.5,244.5 336.2,250.5 339.8,256.0 343.5,260.7 347.2,264.9 350.9,268.6 354.6,272.2 358.2,275.9 361.9,279.9 365.6,284.7 369.3,290.3 373.0,296.9 376.7,304.3 380.3,312.4 384.0,320.6 387.7,328.5 391.4,335.7 395.1,341.8 398.7,346.7 402.4,350.2 406.1,352.6 409.8,354.1 413.5,355.0 417.2,355.5 420.8,355.7 424.5,355.8 428.2,355.8 431.9,355.8 435.6,355.8 439.2,355.8 442.9,355.8 446.6,355.8 450.3,355.8 454.0,355.8 457.7,355.9 461.3,355.9 465.0,356.1 468.7,356.5 472.4,357.4 476.1,358.9 479.7,361.4 483.4,364.7 487.1,368.5 490.8,371.9 494.5,374.5 498.2,376.0 501.8,376.8 505.5,377.4 509.2,378.1 512.9,378.8 516.6,379.3 520.3,379.3 523.9,378.9 527.6,378.2 531.3,377.6 535.0,377.6 538.7,378.2 542.3,378.9 546.0,379.3 549.7,379.1 553.4,378.4 557.1,377.7 560.8,377.6 564.4,378.3 568.1,379.1 571.8,379.3 575.5,378.8 579.2,377.9 582.8,377.5 586.5,378.2 590.2,379.2 593.9,379.8 597.6,380.0 601.3,380.0 604.9,380.0 608.6,380.0 612.3,380.0 616.0,380.0 619.7,380.0 623.3,380.0 627.0,380.0 630.7,380.0 634.4,380.0 638.1,380.0 641.8,380.0 645.4,380.0 649.1,380.0 652.8,380.0 656.5,380.0 660.2,380.0 663.8,380.0 667.5,380.0 671.2,380.0 674.9,380.0 678.6,380.0 682.3,380.0 685.9,380.0 689.6,380.0 693.3,380.0 697.0,380.0 700.7,380.0 704.4,380.0 708.0,380.0 711.7,380.0 715.4,380.0 719.1,380.0 722.8,380.0 726.4,380.0 730.1,380.0 733.8,380.0 737.5,380.0 741.2,380.0 744.9,380.0 748.5,380.0 752.2,380.0 755.9,380.0 759.6,380.0 763.3,380.0 766.9,380.0 770.6,380.0 774.3,380.0 778.0,380.0 781.7,380.0 785.4,380.0 789.0,380.0 792.7,380.0 796.4,380.0 800.1,380.0 803.8,380.0 807.4,380.0 811.1,380.0 814.8,380.0 818.5,380.0 822.2,380.0 825.9,380.0 829.5,380.0 833.2,380.0 836.9,380.0 840.6,380.0 844.3,380.0 847.9,380.0 851.6,380.0 855.3,380.0 859.0,380.0 862.7,380.0 866.4,380.0 870.0,380.0 873.7,380.0 877.4,380.0 881.1,380.0 884.8,380.0 888.5,380.0 892.1,380.0 895.8,380.0 899.5,380.0 903.2,380.0 906.9,380.0 910.5,380.0 914.2,380.0 917.9,380.0 921.6,380.0 925.3,380.0 929.0,380.0 932.6,380.0 936.3,380.0 940.0,380.0" fill="none" stroke="#22c55e" stroke-width="2.2" opacity="0.9"/><polyline points="60.0,235.5 63.7,230.9 67.4,226.2 71.0,221.4 74.7,216.5 78.4,211.6 82.1,206.6 85.8,201.6 89.5,196.5 93.1,191.3 96.8,186.2 100.5,181.0 104.2,175.8 107.9,170.7 111.5,165.5 115.2,160.5 118.9,155.4 122.6,150.5 126.3,145.6 130.0,140.9 133.6,136.2 137.3,131.7 141.0,127.3 144.7,123.1 148.4,119.1 152.1,115.3 155.7,111.6 159.4,108.2 163.1,104.9 166.8,101.9 170.5,99.1 174.1,96.5 177.8,94.1 181.5,91.9 185.2,89.9 188.9,88.2 192.6,86.6 196.2,85.2 199.9,84.0 203.6,82.9 207.3,82.0 211.0,81.2 214.6,80.5 218.3,80.0 222.0,79.5 225.7,79.1 229.4,78.8 233.1,78.5 236.7,78.2 240.4,78.0 244.1,77.8 247.8,77.6 251.5,77.5 255.1,77.3 258.8,77.0 262.5,76.8 266.2,76.5 269.9,76.2 273.6,75.8 277.2,75.4 280.9,74.9 284.6,74.4 288.3,73.8 292.0,73.2 295.6,72.5 299.3,71.9 303.0,71.2 306.7,70.7 310.4,70.3 314.1,70.0 317.7,70.0 321.4,70.4 325.1,71.2 328.8,72.6 332.5,74.6 336.2,77.5 339.8,81.3 343.5,86.0 347.2,91.8 350.9,98.7 354.6,106.5 358.2,115.3 361.9,124.7 365.6,134.7 369.3,145.0 373.0,155.3 376.7,165.6 380.3,175.9 384.0,186.0 387.7,196.3 391.4,206.9 395.1,218.0 398.7,229.7 402.4,242.2 406.1,255.1 409.8,268.2 413.5,281.0 417.2,292.9 420.8,303.3 424.5,312.1 428.2,318.9 431.9,323.9 435.6,327.3 439.2,329.5 442.9,330.8 446.6,331.5 450.3,331.9 454.0,332.2 457.7,332.5 461.3,333.1 465.0,334.1 468.7,335.8 472.4,338.4 476.1,342.0 479.7,346.6 483.4,351.9 487.1,357.4 490.8,362.6 494.5,366.8 498.2,369.9 501.8,371.8 505.5,372.9 509.2,373.5 512.9,373.7 516.6,374.0 520.3,374.3 523.9,374.9 527.6,375.7 531.3,376.8 535.0,377.9 538.7,378.9 542.3,379.5 546.0,379.8 549.7,379.9 553.4,380.0 557.1,380.0 560.8,380.0 564.4,380.0 568.1,380.0 571.8,380.0 575.5,380.0 579.2,380.0 582.8,380.0 586.5,380.0 590.2,380.0 593.9,380.0 597.6,380.0 601.3,380.0 604.9,380.0 608.6,380.0 612.3,380.0 616.0,380.0 619.7,380.0 623.3,380.0 627.0,380.0 630.7,380.0 634.4,380.0 638.1,380.0 641.8,380.0 645.4,380.0 649.1,380.0 652.8,380.0 656.5,380.0 660.2,380.0 663.8,380.0 667.5,380.0 671.2,380.0 674.9,380.0 678.6,380.0 682.3,380.0 685.9,380.0 689.6,380.0 693.3,380.0 697.0,380.0 700.7,380.0 704.4,380.0 708.0,380.0 711.7,380.0 715.4,380.0 719.1,380.0 722.8,380.0 726.4,380.0 730.1,380.0 733.8,380.0 737.5,380.0 741.2,380.0 744.9,380.0 748.5,380.0 752.2,380.0 755.9,380.0 759.6,380.0 763.3,380.0 766.9,380.0 770.6,380.0 774.3,380.0 778.0,380.0 781.7,380.0 785.4,380.0 789.0,380.0 792.7,380.0 796.4,380.0 800.1,380.0 803.8,380.0 807.4,380.0 811.1,380.0 814.8,380.0 818.5,380.0 822.2,380.0 825.9,380.0 829.5,380.0 833.2,380.0 836.9,380.0 840.6,380.0 844.3,380.0 847.9,380.0 851.6,380.0 855.3,380.0 859.0,380.0 862.7,380.0 866.4,380.0 870.0,380.0 873.7,380.0 877.4,380.0 881.1,380.0 884.8,380.0 888.5,380.0 892.1,380.0 895.8,380.0 899.5,380.0 903.2,380.0 906.9,380.0 910.5,380.0 914.2,380.0 917.9,380.0 921.6,380.0 925.3,380.0 929.0,380.0 932.6,380.0 936.3,380.0 940.0,380.0" fill="none" stroke="#10b981" stroke-width="2.2" opacity="0.9"/><polyline points="60.0,258.0 63.7,254.6 67.4,251.2 71.0,247.7 74.7,244.2 78.4,240.6 82.1,237.0 85.8,233.3 89.5,229.6 93.1,225.8 96.8,222.0 100.5,218.2 104.2,214.3 107.9,210.5 111.5,206.6 115.2,202.8 118.9,198.9 122.6,195.1 126.3,191.3 130.0,187.6 133.6,183.9 137.3,180.3 141.0,176.8 144.7,173.3 148.4,169.9 152.1,166.6 155.7,163.5 159.4,160.4 163.1,157.5 166.8,154.7 170.5,152.0 174.1,149.5 177.8,147.1 181.5,144.9 185.2,142.9 188.9,140.9 192.6,139.2 196.2,137.5 199.9,136.1 203.6,134.7 207.3,133.5 211.0,132.5 214.6,131.5 218.3,130.7 222.0,130.0 225.7,129.3 229.4,128.8 233.1,128.3 236.7,127.9 240.4,127.6 244.1,127.3 247.8,127.1 251.5,126.9 255.1,126.7 258.8,126.5 262.5,126.4 266.2,126.2 269.9,126.0 273.6,125.8 277.2,125.6 280.9,125.3 284.6,124.9 288.3,124.4 292.0,123.8 295.6,123.0 299.3,122.1 303.0,121.0 306.7,119.6 310.4,118.0 314.1,116.0 317.7,113.8 321.4,111.1 325.1,108.1 328.8,104.8 332.5,101.1 336.2,97.1 339.8,92.9 343.5,88.5 347.2,84.3 350.9,80.2 354.6,76.5 358.2,73.4 361.9,71.1 365.6,70.0 369.3,70.2 373.0,71.8 376.7,75.1 380.3,80.1 384.0,86.7 387.7,95.0 391.4,104.6 395.1,115.3 398.7,126.9 402.4,138.9 406.1,151.0 409.8,163.2 413.5,175.2 417.2,187.2 420.8,199.2 424.5,211.4 428.2,223.9 431.9,236.8 435.6,250.0 439.2,263.1 442.9,275.7 446.6,287.4 450.3,297.6 454.0,306.1 457.7,312.7 461.3,317.5 465.0,320.8 468.7,323.0 472.4,324.3 476.1,325.4 479.7,326.4 483.4,327.8 487.1,329.8 490.8,332.8 494.5,336.8 498.2,341.9 501.8,347.8 505.5,354.0 509.2,359.8 512.9,364.8 516.6,368.6 520.3,371.1 523.9,372.7 527.6,373.5 531.3,373.8 535.0,374.1 538.7,374.3 542.3,374.7 546.0,375.4 549.7,376.3 553.4,377.3 557.1,378.3 560.8,379.1 564.4,379.6 568.1,379.9 571.8,380.0 575.5,380.0 579.2,380.0 582.8,380.0 586.5,380.0 590.2,380.0 593.9,380.0 597.6,380.0 601.3,380.0 604.9,380.0 608.6,380.0 612.3,380.0 616.0,380.0 619.7,380.0 623.3,380.0 627.0,380.0 630.7,380.0 634.4,380.0 638.1,380.0 641.8,380.0 645.4,380.0 649.1,380.0 652.8,380.0 656.5,380.0 660.2,380.0 663.8,380.0 667.5,380.0 671.2,380.0 674.9,380.0 678.6,380.0 682.3,380.0 685.9,380.0 689.6,380.0 693.3,380.0 697.0,380.0 700.7,380.0 704.4,380.0 708.0,380.0 711.7,380.0 715.4,380.0 719.1,380.0 722.8,380.0 726.4,380.0 730.1,380.0 733.8,380.0 737.5,380.0 741.2,380.0 744.9,380.0 748.5,380.0 752.2,380.0 755.9,380.0 759.6,380.0 763.3,380.0 766.9,380.0 770.6,380.0 774.3,380.0 778.0,380.0 781.7,380.0 785.4,380.0 789.0,380.0 792.7,380.0 796.4,380.0 800.1,380.0 803.8,380.0 807.4,380.0 811.1,380.0 814.8,380.0 818.5,380.0 822.2,380.0 825.9,380.0 829.5,380.0 833.2,380.0 836.9,380.0 840.6,380.0 844.3,380.0 847.9,380.0 851.6,380.0 855.3,380.0 859.0,380.0 862.7,380.0 866.4,380.0 870.0,380.0 873.7,380.0 877.4,380.0 881.1,380.0 884.8,380.0 888.5,380.0 892.1,380.0 895.8,380.0 899.5,380.0 903.2,380.0 906.9,380.0 910.5,380.0 914.2,380.0 917.9,380.0 921.6,380.0 925.3,380.0 929.0,380.0 932.6,380.0 936.3,380.0 940.0,380.0" fill="none" stroke="#3b82f6" stroke-width="2.2" opacity="0.9"/><polyline points="60.0,215.9 63.7,214.2 67.4,212.5 71.0,210.7 74.7,208.9 78.4,207.0 82.1,205.2 85.8,203.3 89.5,201.3 93.1,199.3 96.8,197.3 100.5,195.3 104.2,193.2 107.9,191.1 111.5,188.9 115.2,186.7 118.9,184.5 122.6,182.3 126.3,180.0 130.0,177.7 133.6,175.3 137.3,173.0 141.0,170.6 144.7,168.1 148.4,165.7 152.1,163.2 155.7,160.6 159.4,158.1 163.1,155.5 166.8,152.9 170.5,150.3 174.1,147.7 177.8,145.1 181.5,142.4 185.2,139.7 188.9,137.1 192.6,134.4 196.2,131.7 199.9,129.0 203.6,126.3 207.3,123.7 211.0,121.0 214.6,118.3 218.3,115.7 222.0,113.1 225.7,110.5 229.4,108.0 233.1,105.4 236.7,103.0 240.4,100.5 244.1,98.1 247.8,95.8 251.5,93.5 255.1,91.3 258.8,89.2 262.5,87.2 266.2,85.2 269.9,83.3 273.6,81.5 277.2,79.9 280.9,78.3 284.6,76.8 288.3,75.5 292.0,74.3 295.6,73.2 299.3,72.3 303.0,71.5 306.7,70.9 310.4,70.4 314.1,70.1 317.7,70.0 321.4,70.1 325.1,70.3 328.8,70.7 332.5,71.4 336.2,72.2 339.8,73.3 343.5,74.5 347.2,76.0 350.9,77.8 354.6,79.7 358.2,81.9 361.9,84.4 365.6,87.1 369.3,90.0 373.0,93.2 376.7,96.6 380.3,100.2 384.0,104.1 387.7,108.2 391.4,112.5 395.1,117.0 398.7,121.7 402.4,126.5 406.1,131.5 409.8,136.5 413.5,141.7 417.2,146.8 420.8,152.0 424.5,157.2 428.2,162.3 431.9,167.3 435.6,172.1 439.2,176.8 442.9,181.4 446.6,185.7 450.3,189.8 454.0,193.7 457.7,197.3 461.3,200.8 465.0,204.0 468.7,207.1 472.4,210.1 476.1,213.0 479.7,215.8 483.4,218.7 487.1,221.7 490.8,224.9 494.5,228.2 498.2,231.8 501.8,235.7 505.5,239.9 509.2,244.5 512.9,249.3 516.6,254.4 520.3,259.8 523.9,265.3 527.6,270.8 531.3,276.3 535.0,281.6 538.7,286.7 542.3,291.3 546.0,295.6 549.7,299.3 553.4,302.5 557.1,305.2 560.8,307.3 564.4,309.0 568.1,310.3 571.8,311.3 575.5,312.1 579.2,312.7 582.8,313.2 586.5,313.8 590.2,314.5 593.9,315.4 597.6,316.6 601.3,318.3 604.9,320.6 608.6,323.4 612.3,326.9 616.0,331.0 619.7,335.5 623.3,340.4 627.0,345.2 630.7,349.9 634.4,354.1 638.1,357.7 641.8,360.5 645.4,362.6 649.1,364.1 652.8,365.0 656.5,365.6 660.2,365.9 663.8,366.0 667.5,366.1 671.2,366.1 674.9,366.1 678.6,366.1 682.3,366.1 685.9,366.1 689.6,366.1 693.3,366.1 697.0,366.1 700.7,366.1 704.4,366.1 708.0,366.1 711.7,366.1 715.4,366.1 719.1,366.1 722.8,366.1 726.4,366.1 730.1,366.1 733.8,366.1 737.5,366.1 741.2,366.1 744.9,366.1 748.5,366.1 752.2,366.2 755.9,366.3 759.6,366.6 763.3,367.4 766.9,368.9 770.6,371.0 774.3,373.3 778.0,375.2 781.7,376.4 785.4,377.2 789.0,378.0 792.7,378.6 796.4,378.9 800.1,378.5 803.8,378.0 807.4,377.8 811.1,378.3 814.8,378.8 818.5,378.8 822.2,378.2 825.9,377.8 829.5,378.1 833.2,378.8 836.9,378.8 840.6,378.1 844.3,377.8 847.9,378.5 851.6,379.4 855.3,379.9 859.0,380.0 862.7,380.0 866.4,380.0 870.0,380.0 873.7,380.0 877.4,380.0 881.1,380.0 884.8,380.0 888.5,380.0 892.1,380.0 895.8,380.0 899.5,380.0 903.2,380.0 906.9,380.0 910.5,380.0 914.2,380.0 917.9,380.0 921.6,380.0 925.3,380.0 929.0,380.0 932.6,380.0 936.3,380.0 940.0,380.0" fill="none" stroke="#06b6d4" stroke-width="2.2" opacity="0.9"/><polyline points="60.0,304.3 63.7,303.2 67.4,302.1 71.0,301.0 74.7,299.8 78.4,298.6 82.1,297.4 85.8,296.2 89.5,295.0 93.1,293.7 96.8,292.4 100.5,291.1 104.2,289.7 107.9,288.4 111.5,287.0 115.2,285.6 118.9,284.1 122.6,282.7 126.3,281.2 130.0,279.7 133.6,278.2 137.3,276.7 141.0,275.1 144.7,273.5 148.4,272.0 152.1,270.4 155.7,268.7 159.4,267.1 163.1,265.5 166.8,263.9 170.5,262.2 174.1,260.6 177.8,258.9 181.5,257.2 185.2,255.6 188.9,253.9 192.6,252.3 196.2,250.7 199.9,249.0 203.6,247.4 207.3,245.8 211.0,244.2 214.6,242.7 218.3,241.1 222.0,239.6 225.7,238.1 229.4,236.7 233.1,235.3 236.7,233.9 240.4,232.5 244.1,231.2 247.8,230.0 251.5,228.7 255.1,227.6 258.8,226.5 262.5,225.4 266.2,224.4 269.9,223.4 273.6,222.5 277.2,221.6 280.9,220.8 284.6,220.1 288.3,219.4 292.0,218.7 295.6,218.1 299.3,217.6 303.0,217.1 306.7,216.7 310.4,216.2 314.1,215.9 317.7,215.6 321.4,215.3 325.1,215.0 328.8,214.8 332.5,214.6 336.2,214.4 339.8,214.3 343.5,214.2 347.2,214.1 350.9,214.0 354.6,213.9 358.2,213.9 361.9,213.8 365.6,213.8 369.3,213.7 373.0,213.7 376.7,213.7 380.3,213.6 384.0,213.6 387.7,213.6 391.4,213.5 395.1,213.5 398.7,213.4 402.4,213.3 406.1,213.2 409.8,213.0 413.5,212.8 417.2,212.5 420.8,212.1 424.5,211.6 428.2,210.9 431.9,209.9 435.6,208.8 439.2,207.2 442.9,205.3 446.6,202.9 450.3,199.9 454.0,196.2 457.7,191.6 461.3,186.2 465.0,179.9 468.7,172.5 472.4,164.0 476.1,154.6 479.7,144.3 483.4,133.3 487.1,121.9 490.8,110.6 494.5,99.6 498.2,89.6 501.8,81.2 505.5,74.8 509.2,70.9 512.9,70.0 516.6,72.3 520.3,77.9 523.9,86.9 527.6,98.9 531.3,113.7 535.0,130.8 538.7,149.8 542.3,170.2 546.0,191.3 549.7,212.8 553.4,233.9 557.1,254.1 560.8,272.8 564.4,289.6 568.1,304.1 571.8,316.0 575.5,325.4 579.2,332.4 582.8,337.4 586.5,340.7 590.2,342.7 593.9,343.9 597.6,344.6 601.3,344.9 604.9,345.1 608.6,345.3 612.3,345.6 616.0,346.0 619.7,346.9 623.3,348.2 627.0,350.3 630.7,353.1 634.4,356.7 638.1,360.8 641.8,365.1 645.4,369.0 649.1,372.2 652.8,374.5 656.5,375.9 660.2,376.7 663.8,377.3 667.5,377.9 671.2,378.5 674.9,379.0 678.6,379.3 682.3,379.4 685.9,379.2 689.6,378.8 693.3,378.2 697.0,377.8 700.7,377.7 704.4,378.0 708.0,378.6 711.7,379.2 715.4,379.4 719.1,379.3 722.8,378.8 726.4,378.1 730.1,377.7 733.8,377.8 737.5,378.4 741.2,379.1 744.9,379.4 748.5,379.3 752.2,378.6 755.9,377.9 759.6,377.7 763.3,378.2 766.9,379.1 770.6,379.7 774.3,379.9 778.0,380.0 781.7,380.0 785.4,380.0 789.0,380.0 792.7,380.0 796.4,380.0 800.1,380.0 803.8,380.0 807.4,380.0 811.1,380.0 814.8,380.0 818.5,380.0 822.2,380.0 825.9,380.0 829.5,380.0 833.2,380.0 836.9,380.0 840.6,380.0 844.3,380.0 847.9,380.0 851.6,380.0 855.3,380.0 859.0,380.0 862.7,380.0 866.4,380.0 870.0,380.0 873.7,380.0 877.4,380.0 881.1,380.0 884.8,380.0 888.5,380.0 892.1,380.0 895.8,380.0 899.5,380.0 903.2,380.0 906.9,380.0 910.5,380.0 914.2,380.0 917.9,380.0 921.6,380.0 925.3,380.0 929.0,380.0 932.6,380.0 936.3,380.0 940.0,380.0" fill="none" stroke="#ef4444" stroke-width="2.2" opacity="0.9"/><text x="500" y="414" text-anchor="middle" class="axis-label">Latency (ms, log scale)</text><text x="30" y="220" text-anchor="middle" class="axis-label" transform="rotate(-90 30 220)">Relative density</text><text x="30" y="446" class="footer">Reconstructed from wrk percentiles (min/p50/p75/p90/p99/p99.9/p99.99/p99.999/max), not raw per-request samples - shape is representative, not exact.</text></svg>
