<?xml version="1.0" encoding="UTF-8"?>
<svg xmlns="http://www.w3.org/2000/svg" width="1000" height="460" viewBox="0 0 1000 460"><style>.title{font:15px sans-serif;font-weight:bold;fill:#f9fafb}.legend{font:12px sans-serif;fill:#d1d5db}.tick{font:10px sans-serif;fill:#9ca3af}.axis-label{font:12px sans-serif;fill:#9ca3af}.footer{font:10px sans-serif;fill:#6b7280}</style><rect width="100%" height="100%" fill="#111827"/><text x="30" y="30" class="title">Latency Distribution (density, log scale) - wrk -t12 -c400 -d10s (after 10s warmup, warmup discarded)</text><rect x="60" y="60" width="880" height="320" fill="#1f2937" rx="6" stroke="#374151"/><line x1="60.0" y1="60" x2="60.0" y2="380" stroke="#374151" stroke-dasharray="2,3"/><text x="60.0" y="396" text-anchor="middle" class="tick">0ms</text><line x1="204.2" y1="60" x2="204.2" y2="380" stroke="#374151" stroke-dasharray="2,3"/><text x="204.2" y="396" text-anchor="middle" class="tick">1ms</text><line x1="288.6" y1="60" x2="288.6" y2="380" stroke="#374151" stroke-dasharray="2,3"/><text x="288.6" y="396" text-anchor="middle" class="tick">2ms</text><line x1="432.8" y1="60" x2="432.8" y2="380" stroke="#374151" stroke-dasharray="2,3"/><text x="432.8" y="396" text-anchor="middle" class="tick">5ms</text><line x1="559.0" y1="60" x2="559.0" y2="380" stroke="#374151" stroke-dasharray="2,3"/><text x="559.0" y="396" text-anchor="middle" class="tick">10ms</text><line x1="693.5" y1="60" x2="693.5" y2="380" stroke="#374151" stroke-dasharray="2,3"/><text x="693.5" y="396" text-anchor="middle" class="tick">20ms</text><line x1="878.1" y1="60" x2="878.1" y2="380" stroke="#374151" stroke-dasharray="2,3"/><text x="878.1" y="396" text-anchor="middle" class="tick">50ms</text><rect x="60" y="34" width="11" height="11" fill="#22c55e" rx="2"/><text x="76" y="43" class="legend">CWIST Classic</text><rect x="230" y="34" width="11" height="11" fill="#10b981" rx="2"/><text x="246" y="43" class="legend">CWIST</text><rect x="400" y="34" width="11" height="11" fill="#3b82f6" rx="2"/><text x="416" y="43" class="legend">Axum</text><rect x="570" y="34" width="11" height="11" fill="#06b6d4" rx="2"/><text x="586" y="43" class="legend">Gin</text><rect x="740" y="34" width="11" height="11" fill="#ef4444" rx="2"/><text x="756" y="43" class="legend">Spring Boot</text><polyline points="60.0,226.2 63.7,215.4 67.4,204.4 71.0,193.4 74.7,182.4 78.4,171.5 82.1,160.8 85.8,150.3 89.5,140.3 93.1,130.8 96.8,121.8 100.5,113.4 104.2,105.7 107.9,98.7 111.5,92.5 115.2,87.1 118.9,82.4 122.6,78.5 126.3,75.4 130.0,73.0 133.6,71.3 137.3,70.3 141.0,70.0 144.7,70.4 148.4,71.4 152.1,73.1 155.7,75.4 159.4,78.4 163.1,82.1 166.8,86.5 170.5,91.5 174.1,97.1 177.8,103.2 181.5,109.8 185.2,116.7 188.9,123.7 192.6,130.8 196.2,137.7 199.9,144.4 203.6,150.7 207.3,156.6 211.0,162.2 214.6,167.4 218.3,172.4 222.0,177.5 225.7,182.7 229.4,188.4 233.1,194.6 236.7,201.5 240.4,209.0 244.1,217.1 247.8,225.5 251.5,234.0 255.1,242.2 258.8,249.9 262.5,256.7 266.2,262.5 269.9,267.4 273.6,271.6 277.2,275.4 280.9,279.2 284.6,283.4 288.3,288.5 292.0,294.8 295.6,302.3 299.3,310.9 303.0,320.2 306.7,329.5 310.4,338.3 314.1,345.9 317.7,352.0 321.4,356.5 325.1,359.5 328.8,361.3 332.5,362.3 336.2,362.8 339.8,363.0 343.5,363.1 347.2,363.1 350.9,363.1 354.6,363.1 358.2,363.1 361.9,363.1 365.6,363.1 369.3,363.1 373.0,363.1 376.7,363.1 380.3,363.1 384.0,363.1 387.7,363.1 391.4,363.1 395.1,363.1 398.7,363.1 402.4,363.1 406.1,363.1 409.8,363.2 413.5,363.2 417.2,363.5 420.8,364.1 424.5,365.4 428.2,367.6 431.9,370.7 435.6,374.1 439.2,376.9 442.9,378.6 446.6,379.2 450.3,379.0 454.0,378.3 457.7,377.6 461.3,377.6 465.0,378.3 468.7,379.1 472.4,379.7 476.1,379.9 479.7,380.0 483.4,380.0 487.1,380.0 490.8,379.9 494.5,379.6 498.2,378.8 501.8,377.8 505.5,377.6 509.2,378.4 512.9,379.4 516.6,379.9 520.3,380.0 523.9,380.0 527.6,380.0 531.3,379.8 535.0,379.2 538.7,378.0 542.3,377.6 546.0,378.6 549.7,379.6 553.4,380.0 557.1,380.0 560.8,380.0 564.4,379.8 568.1,378.9 571.8,377.6 575.5,378.1 579.2,379.5 582.8,379.9 586.5,380.0 590.2,380.0 593.9,380.0 597.6,380.0 601.3,380.0 604.9,380.0 608.6,380.0 612.3,380.0 616.0,380.0 619.7,380.0 623.3,380.0 627.0,380.0 630.7,380.0 634.4,380.0 638.1,380.0 641.8,380.0 645.4,380.0 649.1,380.0 652.8,380.0 656.5,380.0 660.2,380.0 663.8,380.0 667.5,380.0 671.2,380.0 674.9,380.0 678.6,380.0 682.3,380.0 685.9,380.0 689.6,380.0 693.3,380.0 697.0,380.0 700.7,380.0 704.4,380.0 708.0,380.0 711.7,380.0 715.4,380.0 719.1,380.0 722.8,380.0 726.4,380.0 730.1,380.0 733.8,380.0 737.5,380.0 741.2,380.0 744.9,380.0 748.5,380.0 752.2,380.0 755.9,380.0 759.6,380.0 763.3,380.0 766.9,380.0 770.6,380.0 774.3,380.0 778.0,380.0 781.7,380.0 785.4,380.0 789.0,380.0 792.7,380.0 796.4,380.0 800.1,380.0 803.8,380.0 807.4,380.0 811.1,380.0 814.8,380.0 818.5,380.0 822.2,380.0 825.9,380.0 829.5,380.0 833.2,380.0 836.9,380.0 840.6,380.0 844.3,380.0 847.9,380.0 851.6,380.0 855.3,380.0 859.0,380.0 862.7,380.0 866.4,380.0 870.0,380.0 873.7,380.0 877.4,380.0 881.1,380.0 884.8,380.0 888.5,380.0 892.1,380.0 895.8,380.0 899.5,380.0 903.2,380.0 906.9,380.0 910.5,380.0 914.2,380.0 917.9,380.0 921.6,380.0 925.3,380.0 929.0,380.0 932.6,380.0 936.3,380.0 940.0,380.0" fill="none" stroke="#22c55e" stroke-width="2.2" opacity="0.9"/><polyline points="60.0,222.1 63.7,215.0 67.4,207.7 71.0,200.3 74.7,192.9 78.4,185.4 82.1,177.9 85.8,170.4 89.5,162.9 93.1,155.5 96.8,148.3 100.5,141.1 104.2,134.2 107.9,127.5 111.5,121.0 115.2,114.8 118.9,108.9 122.6,103.3 126.3,98.2 130.0,93.4 133.6,89.0 137.3,85.0 141.0,81.5 144.7,78.4 148.4,75.8 152.1,73.7 155.7,72.0 159.4,70.9 163.1,70.2 166.8,70.0 170.5,70.3 174.1,71.1 177.8,72.5 181.5,74.3 185.2,76.7 188.9,79.6 192.6,83.0 196.2,86.9 199.9,91.3 203.6,96.2 207.3,101.6 211.0,107.3 214.6,113.5 218.3,119.9 222.0,126.5 225.7,133.2 229.4,140.0 233.1,146.7 236.7,153.2 240.4,159.4 244.1,165.3 247.8,170.9 251.5,176.0 255.1,180.7 258.8,185.0 262.5,189.0 266.2,192.8 269.9,196.4 273.6,200.0 277.2,203.7 280.9,207.5 284.6,211.7 288.3,216.2 292.0,221.0 295.6,226.2 299.3,231.6 303.0,237.2 306.7,242.8 310.4,248.3 314.1,253.4 317.7,258.2 321.4,262.6 325.1,266.5 328.8,270.0 332.5,273.3 336.2,276.6 339.8,280.1 343.5,284.1 347.2,288.8 350.9,294.2 354.6,300.4 358.2,307.3 361.9,314.6 365.6,322.0 369.3,329.0 373.0,335.4 376.7,340.7 380.3,345.0 384.0,348.2 387.7,350.4 391.4,351.8 395.1,352.7 398.7,353.1 402.4,353.3 406.1,353.4 409.8,353.5 413.5,353.5 417.2,353.5 420.8,353.5 424.5,353.5 428.2,353.5 431.9,353.6 435.6,353.8 439.2,354.1 442.9,354.8 446.6,356.1 450.3,358.0 454.0,360.6 457.7,363.8 461.3,367.1 465.0,370.3 468.7,373.0 472.4,375.0 476.1,376.3 479.7,377.0 483.4,377.2 487.1,377.2 490.8,377.2 494.5,377.3 498.2,377.4 501.8,377.3 505.5,377.2 509.2,377.2 512.9,377.3 516.6,377.4 520.3,377.4 523.9,377.5 527.6,378.1 531.3,378.8 535.0,379.5 538.7,379.8 542.3,380.0 546.0,380.0 549.7,380.0 553.4,380.0 557.1,380.0 560.8,380.0 564.4,380.0 568.1,380.0 571.8,380.0 575.5,380.0 579.2,380.0 582.8,380.0 586.5,380.0 590.2,380.0 593.9,380.0 597.6,380.0 601.3,380.0 604.9,380.0 608.6,380.0 612.3,380.0 616.0,380.0 619.7,380.0 623.3,380.0 627.0,380.0 630.7,380.0 634.4,380.0 638.1,380.0 641.8,380.0 645.4,380.0 649.1,380.0 652.8,380.0 656.5,380.0 660.2,380.0 663.8,380.0 667.5,380.0 671.2,380.0 674.9,380.0 678.6,380.0 682.3,380.0 685.9,380.0 689.6,380.0 693.3,380.0 697.0,380.0 700.7,380.0 704.4,380.0 708.0,380.0 711.7,380.0 715.4,380.0 719.1,380.0 722.8,380.0 726.4,380.0 730.1,380.0 733.8,380.0 737.5,380.0 741.2,380.0 744.9,380.0 748.5,380.0 752.2,380.0 755.9,380.0 759.6,380.0 763.3,380.0 766.9,380.0 770.6,380.0 774.3,380.0 778.0,380.0 781.7,380.0 785.4,380.0 789.0,380.0 792.7,380.0 796.4,380.0 800.1,380.0 803.8,380.0 807.4,380.0 811.1,380.0 814.8,380.0 818.5,380.0 822.2,380.0 825.9,380.0 829.5,380.0 833.2,380.0 836.9,380.0 840.6,380.0 844.3,380.0 847.9,380.0 851.6,380.0 855.3,380.0 859.0,380.0 862.7,380.0 866.4,380.0 870.0,380.0 873.7,380.0 877.4,380.0 881.1,380.0 884.8,380.0 888.5,380.0 892.1,380.0 895.8,380.0 899.5,380.0 903.2,380.0 906.9,380.0 910.5,380.0 914.2,380.0 917.9,380.0 921.6,380.0 925.3,380.0 929.0,380.0 932.6,380.0 936.3,380.0 940.0,380.0" fill="none" stroke="#10b981" stroke-width="2.2" opacity="0.9"/><polyline points="60.0,235.9 63.7,229.1 67.4,222.2 71.0,215.2 74.7,208.1 78.4,201.0 82.1,193.9 85.8,186.8 89.5,179.7 93.1,172.7 96.8,165.8 100.5,159.0 104.2,152.4 107.9,146.1 111.5,139.9 115.2,134.0 118.9,128.4 122.6,123.1 126.3,118.2 130.0,113.5 133.6,109.2 137.3,105.3 141.0,101.7 144.7,98.5 148.4,95.6 152.1,93.1 155.7,90.9 159.4,88.9 163.1,87.3 166.8,85.9 170.5,84.7 174.1,83.7 177.8,82.9 181.5,82.2 185.2,81.7 188.9,81.3 192.6,80.9 196.2,80.6 199.9,80.4 203.6,80.1 207.3,79.9 211.0,79.6 214.6,79.4 218.3,79.1 222.0,78.7 225.7,78.3 229.4,77.8 233.1,77.2 236.7,76.5 240.4,75.8 244.1,75.0 247.8,74.1 251.5,73.2 255.1,72.3 258.8,71.4 262.5,70.7 266.2,70.2 269.9,70.0 273.6,70.3 277.2,71.1 280.9,72.7 284.6,75.2 288.3,78.7 292.0,83.4 295.6,89.4 299.3,96.7 303.0,105.1 306.7,114.7 310.4,125.2 314.1,136.3 317.7,147.7 321.4,159.0 325.1,170.1 328.8,180.7 332.5,190.9 336.2,200.9 339.8,210.7 343.5,220.8 347.2,231.5 350.9,242.8 354.6,254.7 358.2,267.0 361.9,279.3 365.6,290.8 369.3,301.2 373.0,310.0 376.7,316.9 380.3,322.1 384.0,325.6 387.7,327.9 391.4,329.2 395.1,330.0 398.7,330.4 402.4,330.8 406.1,331.3 409.8,332.1 413.5,333.5 417.2,335.8 420.8,339.0 424.5,343.4 428.2,348.6 431.9,354.4 435.6,360.0 439.2,365.0 442.9,368.9 446.6,371.6 450.3,373.2 454.0,374.0 457.7,374.4 461.3,374.5 465.0,374.6 468.7,374.7 472.4,374.9 476.1,375.2 479.7,375.9 483.4,376.8 487.1,377.8 490.8,378.7 494.5,379.4 498.2,379.8 501.8,379.9 505.5,380.0 509.2,380.0 512.9,380.0 516.6,380.0 520.3,380.0 523.9,380.0 527.6,380.0 531.3,380.0 535.0,380.0 538.7,380.0 542.3,380.0 546.0,380.0 549.7,380.0 553.4,380.0 557.1,380.0 560.8,380.0 564.4,380.0 568.1,380.0 571.8,380.0 575.5,380.0 579.2,380.0 582.8,380.0 586.5,380.0 590.2,380.0 593.9,380.0 597.6,380.0 601.3,380.0 604.9,380.0 608.6,380.0 612.3,380.0 616.0,380.0 619.7,380.0 623.3,380.0 627.0,380.0 630.7,380.0 634.4,380.0 638.1,380.0 641.8,380.0 645.4,380.0 649.1,380.0 652.8,380.0 656.5,380.0 660.2,380.0 663.8,380.0 667.5,380.0 671.2,380.0 674.9,380.0 678.6,380.0 682.3,380.0 685.9,380.0 689.6,380.0 693.3,380.0 697.0,380.0 700.7,380.0 704.4,380.0 708.0,380.0 711.7,380.0 715.4,380.0 719.1,380.0 722.8,380.0 726.4,380.0 730.1,380.0 733.8,380.0 737.5,380.0 741.2,380.0 744.9,380.0 748.5,380.0 752.2,380.0 755.9,380.0 759.6,380.0 763.3,380.0 766.9,380.0 770.6,380.0 774.3,380.0 778.0,380.0 781.7,380.0 785.4,380.0 789.0,380.0 792.7,380.0 796.4,380.0 800.1,380.0 803.8,380.0 807.4,380.0 811.1,380.0 814.8,380.0 818.5,380.0 822.2,380.0 825.9,380.0 829.5,380.0 833.2,380.0 836.9,380.0 840.6,380.0 844.3,380.0 847.9,380.0 851.6,380.0 855.3,380.0 859.0,380.0 862.7,380.0 866.4,380.0 870.0,380.0 873.7,380.0 877.4,380.0 881.1,380.0 884.8,380.0 888.5,380.0 892.1,380.0 895.8,380.0 899.5,380.0 903.2,380.0 906.9,380.0 910.5,380.0 914.2,380.0 917.9,380.0 921.6,380.0 925.3,380.0 929.0,380.0 932.6,380.0 936.3,380.0 940.0,380.0" fill="none" stroke="#3b82f6" stroke-width="2.2" opacity="0.9"/><polyline points="60.0,198.4 63.7,195.7 67.4,192.9 71.0,190.1 74.7,187.2 78.4,184.3 82.1,181.3 85.8,178.3 89.5,175.3 93.1,172.2 96.8,169.1 100.5,166.0 104.2,162.8 107.9,159.6 111.5,156.3 115.2,153.1 118.9,149.8 122.6,146.5 126.3,143.2 130.0,139.9 133.6,136.6 137.3,133.2 141.0,129.9 144.7,126.6 148.4,123.3 152.1,120.0 155.7,116.8 159.4,113.6 163.1,110.4 166.8,107.3 170.5,104.2 174.1,101.2 177.8,98.3 181.5,95.5 185.2,92.8 188.9,90.1 192.6,87.6 196.2,85.2 199.9,82.9 203.6,80.8 207.3,78.8 211.0,77.0 214.6,75.4 218.3,74.0 222.0,72.7 225.7,71.7 229.4,70.9 233.1,70.4 236.7,70.1 240.4,70.0 244.1,70.2 247.8,70.7 251.5,71.5 255.1,72.6 258.8,73.9 262.5,75.6 266.2,77.6 269.9,79.9 273.6,82.5 277.2,85.5 280.9,88.7 284.6,92.3 288.3,96.2 292.0,100.4 295.6,104.8 299.3,109.6 303.0,114.6 306.7,119.9 310.4,125.3 314.1,131.0 317.7,136.9 321.4,142.9 325.1,149.0 328.8,155.1 332.5,161.3 336.2,167.6 339.8,173.8 343.5,179.9 347.2,185.9 350.9,191.7 354.6,197.4 358.2,202.9 361.9,208.1 365.6,213.1 369.3,217.8 373.0,222.2 376.7,226.3 380.3,230.0 384.0,233.5 387.7,236.7 391.4,239.6 395.1,242.3 398.7,244.7 402.4,247.0 406.1,249.1 409.8,251.2 413.5,253.1 417.2,255.1 420.8,257.2 424.5,259.3 428.2,261.5 431.9,264.0 435.6,266.6 439.2,269.5 442.9,272.6 446.6,275.9 450.3,279.5 454.0,283.2 457.7,287.1 461.3,291.1 465.0,295.2 468.7,299.2 472.4,303.1 476.1,306.9 479.7,310.4 483.4,313.7 487.1,316.6 490.8,319.1 494.5,321.3 498.2,323.1 501.8,324.6 505.5,325.7 509.2,326.6 512.9,327.3 516.6,327.8 520.3,328.1 523.9,328.4 527.6,328.6 531.3,328.7 535.0,328.9 538.7,329.2 542.3,329.6 546.0,330.1 549.7,330.9 553.4,331.9 557.1,333.3 560.8,335.2 564.4,337.5 568.1,340.2 571.8,343.4 575.5,346.8 579.2,350.4 582.8,354.0 586.5,357.3 590.2,360.3 593.9,362.7 597.6,364.7 601.3,366.1 604.9,367.1 608.6,367.7 612.3,368.0 616.0,368.2 619.7,368.3 623.3,368.4 627.0,368.4 630.7,368.4 634.4,368.4 638.1,368.4 641.8,368.4 645.4,368.4 649.1,368.4 652.8,368.4 656.5,368.4 660.2,368.4 663.8,368.4 667.5,368.4 671.2,368.4 674.9,368.4 678.6,368.4 682.3,368.4 685.9,368.4 689.6,368.4 693.3,368.4 697.0,368.4 700.7,368.4 704.4,368.4 708.0,368.4 711.7,368.4 715.4,368.5 719.1,368.6 722.8,368.9 726.4,369.6 730.1,370.9 733.8,372.7 737.5,374.6 741.2,376.2 744.9,377.2 748.5,377.6 752.2,378.1 755.9,378.6 759.6,379.2 763.3,379.4 766.9,379.1 770.6,378.5 774.3,378.1 778.0,378.3 781.7,378.9 785.4,379.3 789.0,379.2 792.7,378.6 796.4,378.1 800.1,378.3 803.8,379.0 807.4,379.4 811.1,379.0 814.8,378.3 818.5,378.1 822.2,378.8 825.9,379.5 829.5,379.9 833.2,380.0 836.9,380.0 840.6,380.0 844.3,380.0 847.9,380.0 851.6,380.0 855.3,380.0 859.0,380.0 862.7,380.0 866.4,380.0 870.0,380.0 873.7,380.0 877.4,380.0 881.1,380.0 884.8,380.0 888.5,380.0 892.1,380.0 895.8,380.0 899.5,380.0 903.2,380.0 906.9,380.0 910.5,380.0 914.2,380.0 917.9,380.0 921.6,380.0 925.3,380.0 929.0,380.0 932.6,380.0 936.3,380.0 940.0,380.0" fill="none" stroke="#06b6d4" stroke-width="2.2" opacity="0.9"/><polyline points="60.0,291.6 63.7,288.8 67.4,285.9 71.0,282.9 74.7,279.9 78.4,276.9 82.1,273.8 85.8,270.7 89.5,267.6 93.1,264.4 96.8,261.2 100.5,258.0 104.2,254.9 107.9,251.7 111.5,248.5 115.2,245.4 118.9,242.3 122.6,239.2 126.3,236.2 130.0,233.3 133.6,230.4 137.3,227.6 141.0,224.9 144.7,222.3 148.4,219.8 152.1,217.4 155.7,215.1 159.4,212.9 163.1,210.8 166.8,208.9 170.5,207.1 174.1,205.4 177.8,203.9 181.5,202.5 185.2,201.2 188.9,200.0 192.6,199.0 196.2,198.0 199.9,197.2 203.6,196.5 207.3,195.8 211.0,195.3 214.6,194.8 218.3,194.4 222.0,194.1 225.7,193.8 229.4,193.6 233.1,193.4 236.7,193.2 240.4,193.1 244.1,193.0 247.8,192.9 251.5,192.9 255.1,192.8 258.8,192.7 262.5,192.7 266.2,192.6 269.9,192.5 273.6,192.4 277.2,192.3 280.9,192.1 284.6,191.8 288.3,191.4 292.0,190.9 295.6,190.3 299.3,189.4 303.0,188.3 306.7,186.8 310.4,184.9 314.1,182.5 317.7,179.4 321.4,175.7 325.1,171.2 328.8,165.8 332.5,159.4 336.2,152.1 339.8,143.8 343.5,134.7 347.2,125.0 350.9,114.9 354.6,104.7 358.2,95.0 361.9,86.2 365.6,78.8 369.3,73.4 373.0,70.3 376.7,70.0 380.3,72.6 384.0,78.3 387.7,86.8 391.4,97.9 395.1,111.3 398.7,126.6 402.4,143.2 406.1,160.9 409.8,179.3 413.5,198.1 417.2,217.0 420.8,235.7 424.5,253.9 428.2,271.0 431.9,286.6 435.6,300.4 439.2,312.0 442.9,321.3 446.6,328.4 450.3,333.4 454.0,336.8 457.7,338.9 461.3,340.2 465.0,340.8 468.7,341.2 472.4,341.5 476.1,341.7 479.7,342.2 483.4,342.9 487.1,344.2 490.8,346.1 494.5,348.9 498.2,352.6 501.8,357.1 505.5,362.0 509.2,366.8 512.9,371.1 516.6,374.6 520.3,377.0 523.9,378.5 527.6,379.3 531.3,379.7 535.0,379.9 538.7,380.0 542.3,380.0 546.0,379.9 549.7,379.8 553.4,379.6 557.1,379.2 560.8,378.6 564.4,378.0 568.1,377.6 571.8,377.6 575.5,378.0 579.2,378.7 582.8,379.3 586.5,379.7 590.2,379.9 593.9,380.0 597.6,380.0 601.3,380.0 604.9,380.0 608.6,380.0 612.3,380.0 616.0,380.0 619.7,380.0 623.3,380.0 627.0,380.0 630.7,380.0 634.4,380.0 638.1,380.0 641.8,380.0 645.4,379.9 649.1,379.5 652.8,378.8 656.5,377.8 660.2,377.5 663.8,378.2 667.5,379.2 671.2,379.8 674.9,380.0 678.6,380.0 682.3,380.0 685.9,380.0 689.6,380.0 693.3,380.0 697.0,380.0 700.7,380.0 704.4,380.0 708.0,380.0 711.7,379.9 715.4,379.3 719.1,378.0 722.8,377.6 726.4,378.7 730.1,379.7 733.8,380.0 737.5,380.0 741.2,380.0 744.9,380.0 748.5,380.0 752.2,380.0 755.9,380.0 759.6,380.0 763.3,379.7 766.9,378.3 770.6,377.6 774.3,379.1 778.0,379.9 781.7,380.0 785.4,380.0 789.0,380.0 792.7,380.0 796.4,380.0 800.1,380.0 803.8,380.0 807.4,380.0 811.1,380.0 814.8,380.0 818.5,380.0 822.2,380.0 825.9,380.0 829.5,380.0 833.2,380.0 836.9,380.0 840.6,380.0 844.3,380.0 847.9,380.0 851.6,380.0 855.3,380.0 859.0,380.0 862.7,380.0 866.4,380.0 870.0,380.0 873.7,380.0 877.4,380.0 881.1,380.0 884.8,380.0 888.5,380.0 892.1,380.0 895.8,380.0 899.5,380.0 903.2,380.0 906.9,380.0 910.5,380.0 914.2,380.0 917.9,380.0 921.6,380.0 925.3,380.0 929.0,380.0 932.6,380.0 936.3,380.0 940.0,380.0" fill="none" stroke="#ef4444" stroke-width="2.2" opacity="0.9"/><text x="500" y="414" text-anchor="middle" class="axis-label">Latency (ms, log scale)</text><text x="30" y="220" text-anchor="middle" class="axis-label" transform="rotate(-90 30 220)">Relative density</text><text x="30" y="446" class="footer">Reconstructed from wrk percentiles (min/p50/p75/p90/p99/p99.9/p99.99/p99.999/max), not raw per-request samples - shape is representative, not exact.</text></svg>
