<?xml version="1.0" encoding="UTF-8"?>
<svg xmlns="http://www.w3.org/2000/svg" width="900" height="460" viewBox="0 0 900 460"><style>.title{font:15px sans-serif;font-weight:bold;fill:#f9fafb}.legend{font:12px sans-serif;fill:#d1d5db}.tick{font:10px sans-serif;fill:#9ca3af}.axis-label{font:12px sans-serif;fill:#9ca3af}.footer{font:10px sans-serif;fill:#6b7280}</style><rect width="100%" height="100%" fill="#111827"/><text x="30" y="30" class="title">Latency Distribution (density, log scale) - wrk -t12 -c400 -d10s (after 10s warmup, warmup discarded)</text><rect x="60" y="60" width="800" height="320" fill="#1f2937" rx="6" stroke="#374151"/><line x1="60.0" y1="60" x2="60.0" y2="380" stroke="#374151" stroke-dasharray="2,3"/><text x="60.0" y="396" text-anchor="middle" class="tick">0ms</text><line x1="186.7" y1="60" x2="186.7" y2="380" stroke="#374151" stroke-dasharray="2,3"/><text x="186.7" y="396" text-anchor="middle" class="tick">1ms</text><line x1="260.8" y1="60" x2="260.8" y2="380" stroke="#374151" stroke-dasharray="2,3"/><text x="260.8" y="396" text-anchor="middle" class="tick">2ms</text><line x1="387.6" y1="60" x2="387.6" y2="380" stroke="#374151" stroke-dasharray="2,3"/><text x="387.6" y="396" text-anchor="middle" class="tick">5ms</text><line x1="498.4" y1="60" x2="498.4" y2="380" stroke="#374151" stroke-dasharray="2,3"/><text x="498.4" y="396" text-anchor="middle" class="tick">10ms</text><line x1="616.6" y1="60" x2="616.6" y2="380" stroke="#374151" stroke-dasharray="2,3"/><text x="616.6" y="396" text-anchor="middle" class="tick">20ms</text><line x1="778.8" y1="60" x2="778.8" y2="380" stroke="#374151" stroke-dasharray="2,3"/><text x="778.8" y="396" text-anchor="middle" class="tick">50ms</text><rect x="60" y="34" width="11" height="11" fill="#22c55e" rx="2"/><text x="76" y="43" class="legend">CWIST (classic)</text><rect x="210" y="34" width="11" height="11" fill="#10b981" rx="2"/><text x="226" y="43" class="legend">CWIST (C1M)</text><rect x="360" y="34" width="11" height="11" fill="#3b82f6" rx="2"/><text x="376" y="43" class="legend">Axum</text><rect x="510" y="34" width="11" height="11" fill="#06b6d4" rx="2"/><text x="526" y="43" class="legend">Gin</text><rect x="660" y="34" width="11" height="11" fill="#ef4444" rx="2"/><text x="676" y="43" class="legend">Spring Boot</text><polyline points="60.0,227.9 63.3,216.5 66.7,204.9 70.0,193.3 73.4,181.6 76.7,170.1 80.1,158.9 83.4,148.0 86.8,137.5 90.1,127.6 93.5,118.4 96.8,109.9 100.2,102.2 103.5,95.3 106.9,89.3 110.2,84.1 113.6,79.8 116.9,76.3 120.3,73.6 123.6,71.6 126.9,70.5 130.3,70.0 133.6,70.2 137.0,71.2 140.3,72.8 143.7,75.1 147.0,78.2 150.4,81.9 153.7,86.4 157.1,91.5 160.4,97.3 163.8,103.6 167.1,110.3 170.5,117.3 173.8,124.5 177.2,131.6 180.5,138.5 183.8,145.2 187.2,151.4 190.5,157.3 193.9,162.9 197.2,168.3 200.6,173.7 203.9,179.5 207.3,185.8 210.6,192.7 214.0,200.5 217.3,209.0 220.7,218.2 224.0,227.7 227.4,237.1 230.7,246.0 234.1,254.1 237.4,261.1 240.8,266.9 244.1,271.6 247.4,275.6 250.8,279.1 254.1,282.8 257.5,287.1 260.8,292.5 264.2,299.2 267.5,307.3 270.9,316.4 274.2,325.9 277.6,335.2 280.9,343.5 284.3,350.3 287.6,355.3 291.0,358.6 294.3,360.7 297.7,361.8 301.0,362.3 304.4,362.6 307.7,362.7 311.0,362.7 314.4,362.7 317.7,362.7 321.1,362.7 324.4,362.7 327.8,362.7 331.1,362.7 334.5,362.7 337.8,362.7 341.2,362.7 344.5,362.7 347.9,362.7 351.2,362.7 354.6,362.7 357.9,362.7 361.3,362.7 364.6,362.7 367.9,362.8 371.3,363.2 374.6,364.1 378.0,365.9 381.3,368.8 384.7,372.3 388.0,375.6 391.4,377.9 394.7,378.9 398.1,378.8 401.4,378.1 404.8,377.5 408.1,377.7 411.5,378.5 414.8,379.3 418.2,379.8 421.5,380.0 424.9,380.0 428.2,380.0 431.5,379.9 434.9,379.5 438.2,378.6 441.6,377.7 444.9,377.7 448.3,378.6 451.6,379.6 455.0,379.9 458.3,380.0 461.7,380.0 465.0,379.8 468.4,379.2 471.7,378.0 475.1,377.6 478.4,378.6 481.8,379.6 485.1,380.0 488.5,380.0 491.8,379.9 495.1,379.4 498.5,378.0 501.8,377.6 505.2,378.9 508.5,379.8 511.9,380.0 515.2,380.0 518.6,380.0 521.9,380.0 525.3,380.0 528.6,380.0 532.0,380.0 535.3,380.0 538.7,380.0 542.0,380.0 545.4,380.0 548.7,380.0 552.1,380.0 555.4,380.0 558.7,380.0 562.1,380.0 565.4,380.0 568.8,380.0 572.1,380.0 575.5,380.0 578.8,380.0 582.2,380.0 585.5,380.0 588.9,380.0 592.2,380.0 595.6,380.0 598.9,380.0 602.3,380.0 605.6,380.0 609.0,380.0 612.3,380.0 615.6,380.0 619.0,380.0 622.3,380.0 625.7,380.0 629.0,380.0 632.4,380.0 635.7,380.0 639.1,380.0 642.4,380.0 645.8,380.0 649.1,380.0 652.5,380.0 655.8,380.0 659.2,380.0 662.5,380.0 665.9,380.0 669.2,380.0 672.6,380.0 675.9,380.0 679.2,380.0 682.6,380.0 685.9,380.0 689.3,380.0 692.6,380.0 696.0,380.0 699.3,380.0 702.7,380.0 706.0,380.0 709.4,380.0 712.7,380.0 716.1,380.0 719.4,380.0 722.8,380.0 726.1,380.0 729.5,380.0 732.8,380.0 736.2,380.0 739.5,380.0 742.8,380.0 746.2,380.0 749.5,380.0 752.9,380.0 756.2,380.0 759.6,380.0 762.9,380.0 766.3,380.0 769.6,380.0 773.0,380.0 776.3,380.0 779.7,380.0 783.0,380.0 786.4,380.0 789.7,380.0 793.1,380.0 796.4,380.0 799.7,380.0 803.1,380.0 806.4,380.0 809.8,380.0 813.1,380.0 816.5,380.0 819.8,380.0 823.2,380.0 826.5,380.0 829.9,380.0 833.2,380.0 836.6,380.0 839.9,380.0 843.3,380.0 846.6,380.0 850.0,380.0 853.3,380.0 856.7,380.0 860.0,380.0" fill="none" stroke="#22c55e" stroke-width="2.2" opacity="0.9"/><polyline points="60.0,176.1 63.3,170.1 66.7,164.2 70.0,158.2 73.4,152.1 76.7,146.1 80.1,140.1 83.4,134.2 86.8,128.3 90.1,122.5 93.5,116.9 96.8,111.4 100.2,106.1 103.5,101.0 106.9,96.2 110.2,91.6 113.6,87.4 116.9,83.6 120.3,80.1 123.6,77.1 126.9,74.6 130.3,72.6 133.6,71.2 137.0,70.3 140.3,70.0 143.7,70.4 147.0,71.4 150.4,73.0 153.7,75.4 157.1,78.4 160.4,82.2 163.8,86.6 167.1,91.6 170.5,97.3 173.8,103.6 177.2,110.5 180.5,117.8 183.8,125.6 187.2,133.8 190.5,142.3 193.9,151.0 197.2,159.8 200.6,168.8 203.9,177.7 207.3,186.5 210.6,195.0 214.0,203.4 217.3,211.3 220.7,218.9 224.0,226.0 227.4,232.6 230.7,238.6 234.1,244.1 237.4,249.1 240.8,253.5 244.1,257.3 247.4,260.7 250.8,263.7 254.1,266.3 257.5,268.5 260.8,270.5 264.2,272.4 267.5,274.1 270.9,275.8 274.2,277.5 277.6,279.3 280.9,281.2 284.3,283.3 287.6,285.7 291.0,288.3 294.3,291.2 297.7,294.2 301.0,297.5 304.4,301.0 307.7,304.5 311.0,308.0 314.4,311.5 317.7,314.9 321.1,318.0 324.4,320.9 327.8,323.4 331.1,325.6 334.5,327.4 337.8,328.9 341.2,330.0 344.5,330.9 347.9,331.5 351.2,331.9 354.6,332.3 357.9,332.5 361.3,332.7 364.6,332.9 367.9,333.2 371.3,333.6 374.6,334.2 378.0,335.1 381.3,336.3 384.7,338.0 388.0,340.2 391.4,342.8 394.7,345.9 398.1,349.3 401.4,352.8 404.8,356.3 408.1,359.5 411.5,362.3 414.8,364.5 418.2,366.2 421.5,367.3 424.9,368.0 428.2,368.4 431.5,368.7 434.9,368.8 438.2,368.8 441.6,368.8 444.9,368.8 448.3,368.9 451.6,368.9 455.0,368.9 458.3,368.9 461.7,368.9 465.0,368.9 468.4,368.9 471.7,368.9 475.1,368.9 478.4,368.9 481.8,368.9 485.1,368.9 488.5,368.9 491.8,368.9 495.1,368.9 498.5,368.9 501.8,368.9 505.2,368.9 508.5,368.9 511.9,369.0 515.2,369.2 518.6,369.8 521.9,370.8 525.3,372.4 528.6,374.2 532.0,375.8 535.3,377.0 538.7,377.7 542.0,378.3 545.4,378.8 548.7,379.0 552.1,378.7 555.4,378.3 558.7,378.3 562.1,378.7 565.4,379.0 568.8,378.8 572.1,378.4 575.5,378.3 578.8,378.7 582.2,379.0 585.5,378.7 588.9,378.3 592.2,378.6 595.6,379.3 598.9,379.8 602.3,380.0 605.6,380.0 609.0,380.0 612.3,380.0 615.6,380.0 619.0,380.0 622.3,380.0 625.7,380.0 629.0,380.0 632.4,380.0 635.7,380.0 639.1,380.0 642.4,380.0 645.8,380.0 649.1,380.0 652.5,380.0 655.8,380.0 659.2,380.0 662.5,380.0 665.9,380.0 669.2,380.0 672.6,380.0 675.9,380.0 679.2,380.0 682.6,380.0 685.9,380.0 689.3,380.0 692.6,380.0 696.0,380.0 699.3,380.0 702.7,380.0 706.0,380.0 709.4,380.0 712.7,380.0 716.1,380.0 719.4,380.0 722.8,380.0 726.1,380.0 729.5,380.0 732.8,380.0 736.2,380.0 739.5,380.0 742.8,380.0 746.2,380.0 749.5,380.0 752.9,380.0 756.2,380.0 759.6,380.0 762.9,380.0 766.3,380.0 769.6,380.0 773.0,380.0 776.3,380.0 779.7,380.0 783.0,380.0 786.4,380.0 789.7,380.0 793.1,380.0 796.4,380.0 799.7,380.0 803.1,380.0 806.4,380.0 809.8,380.0 813.1,380.0 816.5,380.0 819.8,380.0 823.2,380.0 826.5,380.0 829.9,380.0 833.2,380.0 836.6,380.0 839.9,380.0 843.3,380.0 846.6,380.0 850.0,380.0 853.3,380.0 856.7,380.0 860.0,380.0" fill="none" stroke="#10b981" stroke-width="2.2" opacity="0.9"/><polyline points="60.0,232.0 63.3,225.0 66.7,218.0 70.0,210.8 73.4,203.5 76.7,196.2 80.1,188.9 83.4,181.5 86.8,174.2 90.1,167.0 93.5,159.9 96.8,153.0 100.2,146.2 103.5,139.6 106.9,133.3 110.2,127.2 113.6,121.5 116.9,116.0 120.3,110.9 123.6,106.1 126.9,101.8 130.3,97.7 133.6,94.1 137.0,90.8 140.3,87.9 143.7,85.3 147.0,83.1 150.4,81.1 153.7,79.5 157.1,78.1 160.4,76.9 163.8,76.0 167.1,75.2 170.5,74.5 173.8,74.0 177.2,73.6 180.5,73.3 183.8,73.1 187.2,72.9 190.5,72.7 193.9,72.6 197.2,72.4 200.6,72.3 203.9,72.1 207.3,71.9 210.6,71.7 214.0,71.5 217.3,71.3 220.7,71.0 224.0,70.8 227.4,70.5 230.7,70.3 234.1,70.1 237.4,70.0 240.8,70.1 244.1,70.4 247.4,71.0 250.8,72.1 254.1,73.8 257.5,76.2 260.8,79.4 264.2,83.7 267.5,89.1 270.9,95.8 274.2,103.7 277.6,112.8 280.9,122.9 284.3,133.8 287.6,145.2 291.0,156.7 294.3,168.0 297.7,178.9 301.0,189.2 304.4,198.9 307.7,208.3 311.0,217.6 314.4,227.3 317.7,237.5 321.1,248.6 324.4,260.3 327.8,272.5 331.1,284.5 334.5,295.8 337.8,305.7 341.2,314.0 344.5,320.4 347.9,325.0 351.2,328.1 354.6,329.9 357.9,331.0 361.3,331.6 364.6,331.9 367.9,332.2 371.3,332.6 374.6,333.5 378.0,334.9 381.3,337.2 384.7,340.6 388.0,345.2 391.4,350.6 394.7,356.5 398.1,362.1 401.4,366.9 404.8,370.5 408.1,372.8 411.5,374.1 414.8,374.7 418.2,374.9 421.5,375.0 424.9,375.0 428.2,375.1 431.5,375.2 434.9,375.4 438.2,375.9 441.6,376.6 444.9,377.6 448.3,378.6 451.6,379.3 455.0,379.8 458.3,379.9 461.7,380.0 465.0,380.0 468.4,380.0 471.7,380.0 475.1,380.0 478.4,380.0 481.8,380.0 485.1,380.0 488.5,380.0 491.8,380.0 495.1,380.0 498.5,380.0 501.8,380.0 505.2,380.0 508.5,380.0 511.9,380.0 515.2,380.0 518.6,380.0 521.9,380.0 525.3,380.0 528.6,380.0 532.0,380.0 535.3,380.0 538.7,380.0 542.0,380.0 545.4,380.0 548.7,380.0 552.1,380.0 555.4,380.0 558.7,380.0 562.1,380.0 565.4,380.0 568.8,380.0 572.1,380.0 575.5,380.0 578.8,380.0 582.2,380.0 585.5,380.0 588.9,380.0 592.2,380.0 595.6,380.0 598.9,380.0 602.3,380.0 605.6,380.0 609.0,380.0 612.3,380.0 615.6,380.0 619.0,380.0 622.3,380.0 625.7,380.0 629.0,380.0 632.4,380.0 635.7,380.0 639.1,380.0 642.4,380.0 645.8,380.0 649.1,380.0 652.5,380.0 655.8,380.0 659.2,380.0 662.5,380.0 665.9,380.0 669.2,380.0 672.6,380.0 675.9,380.0 679.2,380.0 682.6,380.0 685.9,380.0 689.3,380.0 692.6,380.0 696.0,380.0 699.3,380.0 702.7,380.0 706.0,380.0 709.4,380.0 712.7,380.0 716.1,380.0 719.4,380.0 722.8,380.0 726.1,380.0 729.5,380.0 732.8,380.0 736.2,380.0 739.5,380.0 742.8,380.0 746.2,380.0 749.5,380.0 752.9,380.0 756.2,380.0 759.6,380.0 762.9,380.0 766.3,380.0 769.6,380.0 773.0,380.0 776.3,380.0 779.7,380.0 783.0,380.0 786.4,380.0 789.7,380.0 793.1,380.0 796.4,380.0 799.7,380.0 803.1,380.0 806.4,380.0 809.8,380.0 813.1,380.0 816.5,380.0 819.8,380.0 823.2,380.0 826.5,380.0 829.9,380.0 833.2,380.0 836.6,380.0 839.9,380.0 843.3,380.0 846.6,380.0 850.0,380.0 853.3,380.0 856.7,380.0 860.0,380.0" fill="none" stroke="#3b82f6" stroke-width="2.2" opacity="0.9"/><polyline points="60.0,195.9 63.3,193.2 66.7,190.5 70.0,187.7 73.4,184.9 76.7,182.0 80.1,179.1 83.4,176.2 86.8,173.2 90.1,170.2 93.5,167.1 96.8,164.0 100.2,160.9 103.5,157.7 106.9,154.5 110.2,151.3 113.6,148.1 116.9,144.8 120.3,141.5 123.6,138.3 126.9,135.0 130.3,131.7 133.6,128.4 137.0,125.1 140.3,121.9 143.7,118.6 147.0,115.4 150.4,112.2 153.7,109.1 157.1,106.0 160.4,103.0 163.8,100.0 167.1,97.2 170.5,94.4 173.8,91.6 177.2,89.0 180.5,86.6 183.8,84.2 187.2,82.0 190.5,79.9 193.9,78.0 197.2,76.3 200.6,74.7 203.9,73.4 207.3,72.2 210.6,71.3 214.0,70.6 217.3,70.2 220.7,70.0 224.0,70.1 227.4,70.5 230.7,71.1 234.1,72.1 237.4,73.3 240.8,74.9 244.1,76.8 247.4,79.1 250.8,81.6 254.1,84.5 257.5,87.7 260.8,91.3 264.2,95.1 267.5,99.3 270.9,103.8 274.2,108.6 277.6,113.7 280.9,119.0 284.3,124.6 287.6,130.3 291.0,136.3 294.3,142.4 297.7,148.7 301.0,155.0 304.4,161.4 307.7,167.8 311.0,174.2 314.4,180.5 317.7,186.7 321.1,192.7 324.4,198.6 327.8,204.3 331.1,209.7 334.5,214.9 337.8,219.7 341.2,224.3 344.5,228.5 347.9,232.4 351.2,236.0 354.6,239.2 357.9,242.2 361.3,244.9 364.6,247.4 367.9,249.7 371.3,251.8 374.6,253.8 378.0,255.7 381.3,257.6 384.7,259.6 388.0,261.6 391.4,263.8 394.7,266.1 398.1,268.7 401.4,271.4 404.8,274.4 408.1,277.6 411.5,281.1 414.8,284.7 418.2,288.5 421.5,292.5 424.9,296.4 428.2,300.3 431.5,304.2 434.9,307.9 438.2,311.3 441.6,314.4 444.9,317.2 448.3,319.7 451.6,321.8 455.0,323.5 458.3,324.9 461.7,326.0 465.0,326.8 468.4,327.4 471.7,327.8 475.1,328.1 478.4,328.4 481.8,328.6 485.1,328.8 488.5,329.0 491.8,329.4 495.1,330.0 498.5,330.7 501.8,331.8 505.2,333.3 508.5,335.2 511.9,337.5 515.2,340.4 518.6,343.6 521.9,347.2 525.3,350.9 528.6,354.6 532.0,358.0 535.3,360.9 538.7,363.4 542.0,365.3 545.4,366.6 548.7,367.6 552.1,368.1 555.4,368.4 558.7,368.6 562.1,368.7 565.4,368.7 568.8,368.7 572.1,368.7 575.5,368.7 578.8,368.7 582.2,368.7 585.5,368.7 588.9,368.7 592.2,368.7 595.6,368.7 598.9,368.7 602.3,368.7 605.6,368.7 609.0,368.7 612.3,368.7 615.6,368.7 619.0,368.7 622.3,368.7 625.7,368.7 629.0,368.7 632.4,368.7 635.7,368.7 639.1,368.7 642.4,368.7 645.8,368.8 649.1,368.8 652.5,369.0 655.8,369.6 659.2,370.6 662.5,372.2 665.9,374.2 669.2,375.9 672.6,377.0 675.9,377.6 679.2,378.0 682.6,378.6 685.9,379.2 689.3,379.3 692.6,379.0 696.0,378.4 699.3,378.1 702.7,378.5 706.0,379.1 709.4,379.3 712.7,378.9 716.1,378.3 719.4,378.2 722.8,378.7 726.1,379.3 729.5,379.1 732.8,378.5 736.2,378.1 739.5,378.7 742.8,379.5 746.2,379.9 749.5,380.0 752.9,380.0 756.2,380.0 759.6,380.0 762.9,380.0 766.3,380.0 769.6,380.0 773.0,380.0 776.3,380.0 779.7,380.0 783.0,380.0 786.4,380.0 789.7,380.0 793.1,380.0 796.4,380.0 799.7,380.0 803.1,380.0 806.4,380.0 809.8,380.0 813.1,380.0 816.5,380.0 819.8,380.0 823.2,380.0 826.5,380.0 829.9,380.0 833.2,380.0 836.6,380.0 839.9,380.0 843.3,380.0 846.6,380.0 850.0,380.0 853.3,380.0 856.7,380.0 860.0,380.0" fill="none" stroke="#06b6d4" stroke-width="2.2" opacity="0.9"/><polyline points="60.0,282.3 63.3,279.3 66.7,276.3 70.0,273.2 73.4,270.0 76.7,266.8 80.1,263.5 83.4,260.2 86.8,256.9 90.1,253.5 93.5,250.1 96.8,246.7 100.2,243.2 103.5,239.8 106.9,236.3 110.2,232.9 113.6,229.5 116.9,226.1 120.3,222.7 123.6,219.4 126.9,216.2 130.3,213.0 133.6,209.9 137.0,206.8 140.3,203.9 143.7,201.0 147.0,198.3 150.4,195.7 153.7,193.2 157.1,190.8 160.4,188.6 163.8,186.5 167.1,184.5 170.5,182.6 173.8,180.9 177.2,179.4 180.5,178.0 183.8,176.7 187.2,175.5 190.5,174.5 193.9,173.5 197.2,172.7 200.6,172.0 203.9,171.4 207.3,170.8 210.6,170.4 214.0,170.0 217.3,169.7 220.7,169.4 224.0,169.2 227.4,169.0 230.7,168.9 234.1,168.7 237.4,168.6 240.8,168.5 244.1,168.4 247.4,168.3 250.8,168.2 254.1,168.0 257.5,167.8 260.8,167.6 264.2,167.3 267.5,166.8 270.9,166.3 274.2,165.6 277.6,164.7 280.9,163.5 284.3,162.0 287.6,160.2 291.0,157.9 294.3,155.0 297.7,151.7 301.0,147.6 304.4,142.9 307.7,137.5 311.0,131.3 314.4,124.6 317.7,117.2 321.1,109.5 324.4,101.7 327.8,93.9 331.1,86.7 334.5,80.3 337.8,75.1 341.2,71.6 344.5,70.0 347.9,70.6 351.2,73.7 354.6,79.1 357.9,86.9 361.3,96.8 364.6,108.5 367.9,121.6 371.3,136.0 374.6,151.1 378.0,167.0 381.3,183.3 384.7,200.0 388.0,216.9 391.4,234.1 394.7,251.0 398.1,267.5 401.4,283.0 404.8,297.0 408.1,309.1 411.5,319.1 414.8,326.8 418.2,332.5 421.5,336.4 424.9,338.9 428.2,340.3 431.5,341.1 434.9,341.6 438.2,341.8 441.6,341.9 444.9,342.1 448.3,342.3 451.6,342.8 455.0,343.8 458.3,345.3 461.7,347.7 465.0,351.0 468.4,355.3 471.7,360.1 475.1,364.9 478.4,369.2 481.8,372.5 485.1,374.7 488.5,376.0 491.8,376.7 495.1,377.2 498.5,377.8 501.8,378.5 505.2,379.0 508.5,379.4 511.9,379.5 515.2,379.2 518.6,378.7 521.9,378.0 525.3,377.5 528.6,377.4 532.0,377.8 535.3,378.5 538.7,379.1 542.0,379.5 545.4,379.4 548.7,378.9 552.1,378.1 555.4,377.5 558.7,377.4 562.1,378.0 565.4,378.9 568.8,379.4 572.1,379.4 575.5,378.8 578.8,377.9 582.2,377.4 585.5,377.7 588.9,378.7 592.2,379.5 595.6,379.9 598.9,380.0 602.3,380.0 605.6,380.0 609.0,380.0 612.3,380.0 615.6,380.0 619.0,380.0 622.3,380.0 625.7,380.0 629.0,380.0 632.4,380.0 635.7,380.0 639.1,380.0 642.4,380.0 645.8,380.0 649.1,380.0 652.5,380.0 655.8,380.0 659.2,380.0 662.5,380.0 665.9,380.0 669.2,380.0 672.6,380.0 675.9,380.0 679.2,380.0 682.6,380.0 685.9,380.0 689.3,380.0 692.6,380.0 696.0,380.0 699.3,380.0 702.7,380.0 706.0,380.0 709.4,380.0 712.7,380.0 716.1,380.0 719.4,380.0 722.8,380.0 726.1,380.0 729.5,380.0 732.8,380.0 736.2,380.0 739.5,380.0 742.8,380.0 746.2,380.0 749.5,380.0 752.9,380.0 756.2,380.0 759.6,380.0 762.9,380.0 766.3,380.0 769.6,380.0 773.0,380.0 776.3,380.0 779.7,380.0 783.0,380.0 786.4,380.0 789.7,380.0 793.1,380.0 796.4,380.0 799.7,380.0 803.1,380.0 806.4,380.0 809.8,380.0 813.1,380.0 816.5,380.0 819.8,380.0 823.2,380.0 826.5,380.0 829.9,380.0 833.2,380.0 836.6,380.0 839.9,380.0 843.3,380.0 846.6,380.0 850.0,380.0 853.3,380.0 856.7,380.0 860.0,380.0" fill="none" stroke="#ef4444" stroke-width="2.2" opacity="0.9"/><text x="460" y="414" text-anchor="middle" class="axis-label">Latency (ms, log scale)</text><text x="30" y="220" text-anchor="middle" class="axis-label" transform="rotate(-90 30 220)">Relative density</text><text x="30" y="446" class="footer">Reconstructed from wrk percentiles (min/p50/p75/p90/p99/p99.9/p99.99/p99.999/max), not raw per-request samples - shape is representative, not exact.</text></svg>
